# xmcd CD database file generated by Grip 3.0.7
# 
# Track frame offsets:
#       150
#       4787
#       26580
#       44182
#       65230
#       92472
#       119485
#       139730
#       164447
#       188525
#       199350
#       205557
#       208632
#       212117
#       215917
#       223527
#       228510
#       233287
#       241192
# 
# Disc length: 3543 seconds
# 
# Revision: 1
# Processed by: cddbd v1.5PL3 Copyright (c) Steve Scherf et al.
# Submitted via: Grip 3.0.7
# 
DISCID=1b0dd513
DTITLE=Larry Norman - Stop This Flight
DYEAR=1900
DGENRE=Blues
TTITLE0=Finchian Etude
TTITLE1=Stop This Flight
TTITLE2=A Woman Of God
TTITLE3=Whats Wrong With This Body
TTITLE4=Dont You Want To Talk About It
TTITLE5=And We Sing The Tune
TTITLE6=Out Of My System
TTITLE7=I Hope I'll See You In Heaven
TTITLE8=Messiah
TTITLE9=Radio Interview
TTITLE10=Radio Interview
TTITLE11=Radio Interview
TTITLE12=Radio Interview
TTITLE13=Radio Interview
TTITLE14=Radio Interview
TTITLE15=Radio Interview
TTITLE16=Radio Interview
TTITLE17=Radio Interview
TTITLE18=what's wrong with this body2
EXTD=
EXTT0=
EXTT1=
EXTT2=
EXTT3=
EXTT4=
EXTT5=
EXTT6=
EXTT7=
EXTT8=
EXTT9=
EXTT10=
EXTT11=
EXTT12=
EXTT13=
EXTT14=
EXTT15=
EXTT16=
EXTT17=
EXTT18=
PLAYORDER=
